<svg xmlns="http://www.w3.org/2000/svg" xmlns:xlink="http://www.w3.org/1999/xlink" xmlns:xodm="http://www.corel.com/coreldraw/odm/2003" width="352.718" height="293.017" version="1.1" xml:space="preserve" style="shape-rendering:geometricPrecision;text-rendering:geometricPrecision;image-rendering:optimizeQuality;fill-rule:evenodd;clip-rule:evenodd" viewBox="0 0 9332.34 7752.74"><defs><style type="text/css">.str0{stroke:#000;stroke-width:20;stroke-linecap:round;stroke-linejoin:round;stroke-miterlimit:22.9256}.fil0{fill:#033}</style><clipPath id="id0"><rect width="9332.34" height="7752.74"/></clipPath><clipPath id="id1"><rect width="3436.73" height="3304.74" x="2930.17" y="1469.46"/></clipPath><clipPath id="id2"><path d="M2930.17 4774.2l3436.72 0 0 -3304.73 -3436.72 0 0 3304.73z"/></clipPath><clipPath id="id3"><rect width="3436.73" height="3304.74" x="2930.17" y="1469.46"/></clipPath><clipPath id="id4"><rect width="2502.32" height="2510.5" x="3472.56" y="2093.29"/></clipPath><clipPath id="id5"><path d="M3729.98 1668.14c-26.27,-79.48 -58.38,14.17 -67.64,18.8 -20.33,10.17 32.31,252.53 131.92,544.26 99.62,291.73 296.82,865.03 396.44,1152.7 99.61,287.67 101.64,289.7 45.74,279.54 -55.91,-10.17 -169.76,-32.53 -345.61,-69.12 -175.86,-36.6 -413.71,-87.42 -564.16,-119.95 -150.44,-32.53 -213.46,-46.76 -244.97,-50.83 -31.51,-4.06 -31.51,2.04 -35.58,19.32 -4.06,17.28 -12.2,45.74 -17.28,62.01 -5.08,16.26 -7.12,20.33 48.79,33.54 55.91,13.22 169.76,35.58 337.48,73.19 167.72,37.61 389.32,90.46 543.83,124.01 154.5,33.54 241.92,47.77 286.65,53.88 44.72,6.09 46.75,4.06 27.44,29.47 -19.31,25.41 -59.97,78.27 -160.6,198.22 -100.64,119.95 -261.24,306.98 -348.66,413.71 -87.42,106.73 -101.65,133.16 -95.55,154.51 6.09,21.35 32.52,37.61 45.74,41.67 13.21,4.07 13.21,-4.06 77.25,-78.27 64.04,-74.2 192.12,-214.47 299.87,-335.44 107.75,-120.96 195.16,-222.61 237.86,-275.47 42.69,-52.86 40.66,-56.92 66.07,19.31 25.41,76.24 78.27,232.78 150.44,418.8 72.17,186.02 163.66,401.52 211.43,516.38 47.78,114.86 51.84,129.09 72.17,126.04 20.33,-3.04 56.93,-23.38 75.22,-33.54 18.3,-10.16 18.3,-10.16 -59.97,-202.28 -78.27,-192.12 -234.81,-576.35 -312.06,-770.51 -77.26,-194.15 -75.22,-198.21 -56.93,-195.16 18.3,3.05 52.86,13.21 147.4,30.49 94.53,17.28 249.03,41.68 406.59,66.08 157.56,24.39 318.16,48.79 472.67,66.07 154.51,17.28 302.92,27.44 377.12,32.53 74.21,5.08 74.21,5.08 75.22,-12.2 1.02,-17.28 3.05,-51.84 4.07,-69.12 1.01,-17.28 1.01,-17.28 -238.88,-49.81 -239.89,-32.53 -719.68,-97.59 -959.57,-130.11 -239.89,-32.53 -239.89,-32.53 -237.86,-35.58 2.03,-3.05 6.1,-9.15 192.12,-231.76 186.02,-222.61 553.99,-661.74 737.97,-881.3 183.99,-219.57 183.99,-219.57 166.71,-233.8 -17.28,-14.23 -51.84,-42.69 -69.12,-56.92 -17.28,-14.23 -17.28,-14.23 -205.34,214.48 -188.05,228.71 -564.15,686.14 -753.22,914.85 -189.06,228.71 -191.1,228.71 -195.16,225.66 -4.07,-3.05 -8.79,-9.6 -106.74,-305.97l-559.31 -1692.38z"/></clipPath><clipPath id="id6"><rect width="1451.89" height="1228.68" x="5249.45" y="1212.5"/></clipPath><clipPath id="id7"><rect width="1437.57" height="1383.52" x="1676.63" y="2578.56"/></clipPath><clipPath id="id8"><rect width="1652.42" height="1414.96" x="4282.39" y="4725.59"/></clipPath></defs><g id="Layer_x0020_1"><metadata id="CorelCorpID_0Corel-Layer"/><g id="_2645579197712"><rect width="1995.94" height="1588.39" x="3152.42" y="1724.79" class="fil0 str0"/><g style="clip-path:url(#id0)"><image width="9332.34" height="7752.74" x="0" y="0" xlink:href="GLOBE_Images\GLOBE_ImgID1.png"/></g><g style="clip-path:url(#id2)"><image width="3436.72" height="3304.73" x="2930.17" y="1469.47" xlink:href="GLOBE_Images\GLOBE_ImgID2.png"/></g><g style="clip-path:url(#id4)"><image width="2502.31" height="2510.5" x="3472.56" y="2093.29" xlink:href="GLOBE_Images\GLOBE_ImgID3.png"/></g><g style="clip-path:url(#id5)"><image width="9334.31" height="7752.55" x="-.99" y=".1" xlink:href="GLOBE_Images\GLOBE_ImgID4.png"/></g><g style="clip-path:url(#id6)"><image width="1451.88" height="1228.67" x="5249.45" y="1212.51" xlink:href="GLOBE_Images\GLOBE_ImgID5.png"/></g><g style="clip-path:url(#id7)"><image width="1437.57" height="1383.52" x="1676.63" y="2578.56" xlink:href="GLOBE_Images\GLOBE_ImgID6.png"/></g><g style="clip-path:url(#id8)"><image width="1652.41" height="1414.95" x="4282.39" y="4725.6" xlink:href="GLOBE_Images\GLOBE_ImgID7.png"/></g></g></g></svg>